<?xml version="1.0" encoding="utf-8"?>
<!-- Generator: Adobe Illustrator 21.0.2, SVG Export Plug-In . SVG Version: 6.00 Build 0)  -->
<svg version="1.1" id="Layer_1" xmlns="http://www.w3.org/2000/svg" xmlns:xlink="http://www.w3.org/1999/xlink" x="0px" y="0px"
	 viewBox="0 0 100 102.8" style="enable-background:new 0 0 100 102.8;" xml:space="preserve">
<g>
	<path d="M75.7,52.4c-2.1,2.3-4.4,4.3-7,6C82.2,58.8,93,69.9,93,83.5v12.3H7V83.5c0-13.6,10.8-24.7,24.3-25.1c-2.6-1.7-5-3.7-7-6
		C10.3,55.9,0,68.5,0,83.5v15.8c0,1.9,1.6,3.5,3.5,3.5h93c1.9,0,3.5-1.6,3.5-3.5V83.5C100,68.5,89.7,55.9,75.7,52.4z"/>
	<g>
		<path d="M50,58.9c-16.2,0-29.5-13.2-29.5-29.5S33.8,0,50,0s29.5,13.2,29.5,29.5S66.2,58.9,50,58.9z M50,7
			C37.6,7,27.5,17.1,27.5,29.5S37.6,51.9,50,51.9s22.5-10.1,22.5-22.5S62.4,7,50,7z"/>
	</g>
</g>
</svg>
