<?xml version="1.0" encoding="utf-8"?>
<!-- Generator: Adobe Illustrator 21.0.2, SVG Export Plug-In . SVG Version: 6.00 Build 0)  -->
<svg version="1.1" id="Layer_1" xmlns="http://www.w3.org/2000/svg" xmlns:xlink="http://www.w3.org/1999/xlink" x="0px" y="0px"
	 viewBox="0 0 55.4 55.4" style="enable-background:new 0 0 55.4 55.4;" xml:space="preserve">
<g>
	<rect x="0.2" y="17.4" width="55" height="3.4"/>
</g>
<g>
	<polygon points="7.1,55.4 3.4,27.8 3.4,24.1 7.3,24.1 7.3,27.6 10.5,51.6 44.9,51.6 48.1,27.6 48.1,24.1 52,24.1 52,27.9 
		48.3,55.4 	"/>
</g>
<g>
	<path d="M14,31.4c-0.1,0-0.3,0-0.5-0.1c-1-0.2-1.6-1.3-1.4-2.3L19,1.5C19.2,0.6,20,0,20.9,0c0.1,0,0.3,0,0.4,0
		c0.5,0.1,0.9,0.4,1.2,0.9c0.3,0.4,0.4,1,0.3,1.5l-6.9,27.5C15.6,30.8,14.8,31.4,14,31.4z"/>
</g>
<g>
	<path d="M41.5,31.4c-0.9,0-1.7-0.6-1.9-1.5L32.7,2.4c-0.1-0.5,0-1.1,0.3-1.5s0.7-0.7,1.2-0.8c0.1,0,0.3,0,0.4,0
		c0.9,0,1.7,0.6,1.9,1.5L43.4,29c0.1,0.5,0,1-0.2,1.5c-0.3,0.5-0.7,0.8-1.1,0.9c-0.2,0-0.3,0-0.4,0.1C41.6,31.4,41.6,31.4,41.5,31.4
		z"/>
</g>
</svg>
