<?xml version="1.0" encoding="utf-8"?>
<!-- Generator: Adobe Illustrator 21.0.2, SVG Export Plug-In . SVG Version: 6.00 Build 0)  -->
<svg version="1.1" id="Layer_1" xmlns="http://www.w3.org/2000/svg" xmlns:xlink="http://www.w3.org/1999/xlink" x="0px" y="0px"
	 viewBox="0 0 90 90" style="enable-background:new 0 0 90 90;" xml:space="preserve">
<style type="text/css">
	.st0{fill:#FFFFFF;}
</style>
<g>
	<path class="st0" d="M0,39.4C0,50,4.1,59.9,11.6,67.3c7.4,7.5,17.3,11.6,27.8,11.6c9.5,0,18.5-3.4,25.7-9.5l19.8,19.7
		c1.2,1.2,3.1,1.2,4.2,0c0.6-0.6,0.9-1.3,0.9-2.1s-0.3-1.5-0.9-2.1L69.3,65.1c6.2-7.1,9.5-16.2,9.5-25.7c0-10.5-4.1-20.4-11.6-27.9
		C59.9,4.1,50,0,39.4,0C28.8,0,19,4.1,11.6,11.6S0,28.9,0,39.4z M63.1,15.8c6.3,6.3,9.8,14.7,9.8,23.6S69.4,56.7,63.1,63
		s-14.7,9.8-23.6,9.8S22.2,69.3,15.9,63C9.5,56.8,6,48.4,6,39.4s3.5-17.3,9.8-23.6S30.5,6,39.4,6S56.8,9.5,63.1,15.8z"/>
</g>
</svg>
